<?xml version="1.0" encoding="UTF-8"?>
<svg version="1.1" xmlns="http://www.w3.org/2000/svg" width="500" height="500">
<path d="M0 0 C18.48 0 36.96 0 56 0 C61.6875 13.8125 61.6875 13.8125 63.44799805 18.09692383 C66.12057555 24.57088341 68.87390337 30.99024982 71.80493164 37.35229492 C73.94833688 42.10106505 75.89786651 46.9302487 77.875 51.75 C80.69853886 58.588947 83.5574402 65.3869827 86.75 72.0625 C89.31394918 77.43601032 91.57791342 82.85566863 93.74023438 88.39697266 C95.66460337 93.27986958 97.84802234 98.00666886 100.11328125 102.7421875 C102.94820055 108.74338031 105.47260902 114.86415399 108 121 C111.7657933 130.12863911 115.72609641 139.09856013 120 148 C123.9618497 156.27639273 127.67641394 164.54621717 130.88671875 173.15234375 C132.06858279 176.17542755 133.46815946 178.98544475 134.97265625 181.85546875 C136.29578008 184.61742686 137.35672429 187.44726594 138.4375 190.3125 C140.29572872 195.23035002 142.30193826 200.01668256 144.51171875 204.78515625 C146.39071866 208.84399332 148.22755725 212.9210945 150.0625 217 C150.43608643 217.82886719 150.80967285 218.65773438 151.19458008 219.51171875 C153.54256494 224.7296773 155.86856669 229.9570269 158.1796875 235.19140625 C158.72515332 236.42514158 159.27064482 237.65886556 159.81616211 238.89257812 C160.88520174 241.31050566 161.95046127 243.72998936 163.01391602 246.15039062 C163.50303467 247.25705078 163.99215332 248.36371094 164.49609375 249.50390625 C164.93107178 250.49205322 165.3660498 251.4802002 165.81420898 252.49829102 C167.0014357 255.15909082 167.0014357 255.15909082 169 258 C169.31638428 257.28682617 169.63276855 256.57365234 169.95874023 255.83886719 C171.45112382 252.4756732 172.94417961 249.11277809 174.4375 245.75 C174.71010651 245.13598328 174.98271301 244.52196655 175.26358032 243.88934326 C178.712394 236.12277134 182.18285483 228.36656881 185.6875 220.625 C189.16705422 212.93124026 192.52456506 205.18930285 195.8190918 197.41455078 C198.04451648 192.17401775 200.35683614 186.98039895 202.72314453 181.80200195 C209.76666277 166.34531767 216.42829156 150.73294598 222.85180664 135.01025391 C225.39390479 128.80322118 228.03843736 122.67011037 230.84326172 116.57763672 C232.66258423 112.52351956 234.26447549 108.39040046 235.875 104.25 C238.70020026 97.08396263 241.7593421 90.12920211 245.08203125 83.1796875 C248.07361082 76.7867668 250.68164662 70.22349864 253.37182617 63.69995117 C255.96460218 57.43097679 258.67511411 51.26194169 261.57421875 45.12890625 C263.64879238 40.57621179 265.50878514 35.94095826 267.39086914 31.30615234 C269.58494626 25.93233247 271.94701654 20.65847713 274.4453125 15.41796875 C276.75749954 10.33464297 278.85212332 5.15490403 281 0 C299.48 0 317.96 0 337 0 C338.11759596 4.47038385 337.92745693 4.79775263 335.8125 8.5625 C333.93281706 12.09465146 332.3675758 15.52999216 331.0625 19.3125 C329.21635151 24.59144667 326.93648823 29.5863168 324.55859375 34.64453125 C321.52997084 41.16479962 318.77780121 47.80705669 315.97167969 54.42529297 C308.28586168 72.532156 308.28586168 72.532156 304.25 81.0625 C301.8071072 86.22779279 299.53833104 91.4274919 297.375 96.71484375 C295.33679183 101.58453998 293.17095651 106.39578244 291.01635742 111.21484375 C288.92611568 115.89682761 286.87952959 120.59317443 284.875 125.3125 C283.01436887 129.68573544 281.0807135 134.00981792 279.0625 138.3125 C276.69587972 143.38028898 274.53662615 148.50549506 272.4375 153.6875 C270.21246566 159.17971944 267.8317045 164.49774064 265.109375 169.765625 C262.5632507 174.8937345 260.65094901 180.31114897 258.59375 185.6484375 C256.14981999 191.92077046 253.60984962 197.91761469 250.19921875 203.73828125 C248.80631031 206.36529749 247.7852068 209.02486122 246.75 211.8125 C242.42424099 223.44307847 237.06253868 234.66845074 231.75 245.875 C227.52297093 254.86487873 223.63113886 264.00380013 219.70605469 273.12841797 C216.91245378 279.61841709 214.07825042 286.08478724 211.13891602 292.51025391 C208.65255021 297.94561478 206.2307836 303.39841476 203.96484375 308.9296875 C203.63033203 309.744375 203.29582031 310.5590625 202.95117188 311.3984375 C202.26661063 313.0709301 201.58704106 314.74547326 200.91210938 316.421875 C200.57888672 317.22882813 200.24566406 318.03578125 199.90234375 318.8671875 C199.60835693 319.59019043 199.31437012 320.31319336 199.01147461 321.05810547 C197.87160192 323.24650696 196.93249225 324.4577978 195 326 C192.64733887 326.38768005 192.64733887 326.38768005 189.84179688 326.40405273 C188.2650116 326.42307899 188.2650116 326.42307899 186.65637207 326.44248962 C185.52195679 326.43955399 184.3875415 326.43661835 183.21875 326.43359375 C182.05371948 326.4388356 180.88868896 326.44407745 179.68835449 326.44947815 C177.22372231 326.45590527 174.75905948 326.45455249 172.29443359 326.44604492 C168.51474653 326.43753321 164.73656897 326.46629226 160.95703125 326.49804688 C158.56510462 326.49965882 156.17317531 326.49908149 153.78125 326.49609375 C152.64683472 326.50732773 151.51241943 326.51856171 150.34362793 326.53013611 C149.29243774 326.52075516 148.24124756 326.51137421 147.15820312 326.50170898 C146.23237427 326.50154282 145.30654541 326.50137665 144.35266113 326.50120544 C142 326 142 326 140.23522949 324.09681702 C138.99315054 321.98837296 138.09096127 319.98427631 137.25 317.6875 C135.59494588 313.38686693 133.73075463 309.22065259 131.75 305.0625 C129.00261664 299.27230772 126.45855147 293.41831763 124 287.5 C121.7139433 282.00413971 119.37116371 276.56385263 116.8125 271.1875 C113.24713714 263.65699674 109.93095193 256.02194985 106.625 248.375 C106.34224213 247.72114319 106.05948425 247.06728638 105.76815796 246.39361572 C102.5711217 238.99618463 99.39571611 231.58972089 96.23828125 224.17529297 C92.94541376 216.44716405 89.54445945 208.8036836 85.94921875 201.2109375 C82.8332136 194.55212286 79.93452843 187.79379399 76.98583984 181.05981445 C74.18209142 174.66433919 71.31904187 168.30671738 68.37109375 161.9765625 C64.01948729 152.52948523 59.97268404 142.94978911 55.94091797 133.36303711 C51.97277471 123.9294522 47.95450897 114.55477538 43.55078125 105.31640625 C41.90891692 101.80521528 40.38336235 98.25792733 38.875 94.6875 C36.8088855 89.80245801 34.56547037 85.07407114 32.1484375 80.35546875 C30.59052925 77.16016714 29.31677416 73.87870438 28.03125 70.56640625 C26.59600245 66.99459701 24.97611826 63.51657684 23.34375 60.03125 C22.22473377 57.50695758 21.18879453 54.97770498 20.17578125 52.41015625 C17.83605355 46.51535752 15.26482336 40.73143409 12.6875 34.9375 C5.82388087 19.385333 5.82388087 19.385333 2.8125 12.25 C2.52141357 11.57831787 2.23032715 10.90663574 1.93041992 10.21459961 C0.34498005 6.40885437 0 4.27849874 0 0 Z " fill="#F9F8F8" transform="translate(86,169)"/>
<path d="M0 0 C7.32975524 4.4456559 14.05323608 13.24179636 16.4921875 21.421875 C16.59273438 21.97230469 16.69328125 22.52273437 16.796875 23.08984375 C17.456875 23.08984375 18.116875 23.08984375 18.796875 23.08984375 C20.93160779 26.91457333 22.37790612 29.67400721 21.796875 34.08984375 C20.796875 36.40234375 20.796875 36.40234375 19.796875 38.08984375 C19.136875 38.08984375 18.476875 38.08984375 17.796875 38.08984375 C17.796875 38.74984375 17.796875 39.40984375 17.796875 40.08984375 C15.486875 40.08984375 13.176875 40.08984375 10.796875 40.08984375 C10.57 40.79109375 10.343125 41.49234375 10.109375 42.21484375 C8.45846212 45.8311291 6.5059915 48.17754351 3.796875 51.08984375 C3.136875 51.08984375 2.476875 51.08984375 1.796875 51.08984375 C1.61511719 52.13785156 1.61511719 52.13785156 1.4296875 53.20703125 C1.26210937 54.11710937 1.09453125 55.0271875 0.921875 55.96484375 C0.75945312 56.86976562 0.59703125 57.7746875 0.4296875 58.70703125 C-0.203125 61.08984375 -0.203125 61.08984375 -2.203125 63.08984375 C-3.04875 62.98671875 -3.894375 62.88359375 -4.765625 62.77734375 C-8.76836594 63.14122929 -9.60690598 64.02915585 -12.578125 66.58984375 C-15.7213401 69.24209826 -17.60093226 70.57894171 -21.765625 70.52734375 C-22.9 70.38296875 -24.034375 70.23859375 -25.203125 70.08984375 C-25.203125 69.42984375 -25.203125 68.76984375 -25.203125 68.08984375 C-25.863125 68.08984375 -26.523125 68.08984375 -27.203125 68.08984375 C-27.43 67.28546875 -27.656875 66.48109375 -27.890625 65.65234375 C-28.32375 64.80671875 -28.756875 63.96109375 -29.203125 63.08984375 C-31.75087806 62.19598211 -31.75087806 62.19598211 -34.203125 62.08984375 C-33.68624155 67.87893839 -32.4306611 72.71655056 -30.203125 78.08984375 C-29.44891099 79.94512955 -28.69502453 81.80055387 -27.94604492 83.65795898 C-27.42181093 84.95606977 -26.89353291 86.25255712 -26.3605957 87.54711914 C-23.6688957 94.17411414 -21.92805792 99.96388241 -22.015625 107.15234375 C-22.02207031 108.31894531 -22.02851563 109.48554687 -22.03515625 110.6875 C-22.1940752 113.90653261 -22.66733612 116.91632498 -23.203125 120.08984375 C-23.3673805 122.44058226 -23.46774939 124.79636002 -23.515625 127.15234375 C-23.55300781 128.33957031 -23.59039062 129.52679688 -23.62890625 130.75 C-23.33953665 136.77548084 -21.10463968 142.41765902 -19.203125 148.08984375 C-18.85338623 149.16355225 -18.50364746 150.23726074 -18.14331055 151.34350586 C-13.02018591 166.95983456 -8.00081009 181.75410571 1.796875 195.08984375 C5.05777172 200.9369689 5.76367242 206.51163452 4.796875 213.08984375 C3.49898544 215.11302453 2.17222839 217.11850389 0.796875 219.08984375 C1.84565844 223.55803355 3.82716198 226.9869539 6.359375 230.77734375 C8.2425486 233.60797684 9.72015658 235.8596885 10.796875 239.08984375 C16.82018534 242.2415759 24.16347616 243.03593926 30.796875 244.08984375 C30.38695312 243.414375 29.97703125 242.73890625 29.5546875 242.04296875 C29.01585937 241.1509375 28.47703125 240.25890625 27.921875 239.33984375 C27.38820312 238.458125 26.85453125 237.57640625 26.3046875 236.66796875 C23.43620964 231.76331749 22.22257973 228.92851236 22.796875 223.08984375 C24.61934693 217.34659437 27.07377885 212.96520469 31.796875 209.08984375 C37.21284027 207.28452199 42.72302042 207.47536832 48.171875 209.08984375 C51.8631346 211.90223202 53.55211853 214.62294625 54.796875 219.08984375 C55.33079351 224.89526758 55.07586217 230.40199026 53.796875 236.08984375 C53.136875 236.08984375 52.476875 236.08984375 51.796875 236.08984375 C51.69375 236.66734375 51.590625 237.24484375 51.484375 237.83984375 C50.69805614 240.41325092 49.44496477 241.98665144 47.796875 244.08984375 C49.94343001 243.78234004 52.08910785 243.46870715 54.234375 243.15234375 C55.42933594 242.97832031 56.62429688 242.80429688 57.85546875 242.625 C60.67643176 242.39999162 60.67643176 242.39999162 61.796875 241.08984375 C63.09625 241.24453125 63.09625 241.24453125 64.421875 241.40234375 C69.3753474 240.9436889 71.60808735 238.79295199 74.796875 235.08984375 C80.08247274 228.10891368 80.08247274 228.10891368 81.5546875 219.859375 C80.89310824 217.10677015 80.89310824 217.10677015 79.671875 214.77734375 C78.32413044 210.63784261 78.57063722 207.25505359 79.796875 203.08984375 C81.77218227 199.47045452 84.24091593 196.31720511 86.796875 193.08984375 C95.71315321 181.72737882 103.52546598 170.5630493 109.234375 157.21484375 C109.57678223 156.41804199 109.91918945 155.62124023 110.27197266 154.80029297 C114.88521868 143.59736694 115.64184599 129.46869822 110.9609375 118.05078125 C110.67992187 117.48617187 110.39890625 116.9215625 110.109375 116.33984375 C108.23526723 111.69919594 108.86875825 107.60252862 110.57006836 102.99658203 C111.54011004 100.81709493 112.56427133 98.6717993 113.609375 96.52734375 C120.57855121 81.86007331 120.57855121 81.86007331 120.796875 66.08984375 C117.61799345 66.82588845 117.61799345 66.82588845 115.984375 69.58984375 C113.796875 72.08984375 113.796875 72.08984375 111.109375 73.27734375 C106.67046458 73.02608467 104.48986452 71.03001449 100.9765625 68.4453125 C98.16030908 66.69398645 96.04545682 66.93514938 92.796875 67.08984375 C90.26002922 64.83486972 89.51531064 62.28662508 88.484375 59.15234375 C86.90042969 54.62678571 84.54963289 52.98259463 80.796875 50.08984375 C79.046875 47.46484375 79.046875 47.46484375 77.796875 45.08984375 C77.136875 44.09984375 76.476875 43.10984375 75.796875 42.08984375 C74.65073042 32.04247243 76.56703873 24.05019009 82.796875 16.08984375 C88.94956127 9.6703318 94.92051582 6.99846593 103.796875 6.65234375 C111.8786639 6.89571004 116.31075097 9.81090938 122.359375 14.90234375 C125.83584979 17.81443325 125.83584979 17.81443325 130.359375 17.83984375 C131.49375 17.59234375 132.628125 17.34484375 133.796875 17.08984375 C139.63863097 18.33444051 144.70156936 21.06261439 148.140625 26.03125 C150.86056582 30.57766271 152.25051092 34.64669384 153.2109375 39.8203125 C154.66447271 45.45033889 158.07411299 51.6435039 162.796875 55.08984375 C165.35799361 56.17259308 167.92661411 57.15398205 170.5546875 58.0625 C172.796875 59.08984375 172.796875 59.08984375 174.796875 62.08984375 C172.6583265 64.22839225 171.66412186 64.51639438 168.796875 65.08984375 C169.03921875 65.77046875 169.2815625 66.45109375 169.53125 67.15234375 C177.9302291 91.4447756 180.68930879 117.12196787 181.046875 142.77734375 C181.07265625 143.91558594 181.0984375 145.05382812 181.125 146.2265625 C180.796875 149.08984375 180.796875 149.08984375 179.77319336 150.73681641 C176.69995918 152.84081441 173.44960413 152.5708783 169.84765625 152.6015625 C169.07503952 152.6195137 168.30242279 152.6374649 167.50639343 152.65596008 C165.040776 152.71010479 162.57535257 152.74397106 160.109375 152.77734375 C158.43682194 152.81051327 156.76429449 152.8450026 155.09179688 152.88085938 C150.9936295 152.96583324 146.89552006 153.03262395 142.796875 153.08984375 C138.14242214 165.42006978 138.14242214 165.42006978 133.734375 177.83984375 C130.60283786 186.81080087 127.16091971 195.58637697 122.82421875 204.05078125 C119.07920693 211.48384653 115.98325934 219.12092525 113.046875 226.90234375 C111.88981496 229.85284685 110.63311549 232.71692669 109.296875 235.58984375 C107.47193575 239.51916608 105.83767694 243.47792364 104.296875 247.52734375 C100.59236317 257.25459967 100.59236317 257.25459967 99.171875 260.83984375 C98.78773438 261.8246875 98.40359375 262.80953125 98.0078125 263.82421875 C96.796875 266.08984375 96.796875 266.08984375 93.796875 267.08984375 C93.466875 266.75984375 93.136875 266.42984375 92.796875 266.08984375 C92.9013612 257.12705298 94.52646734 248.44189622 96.421875 239.71484375 C96.6811377 238.48983154 96.94040039 237.26481934 97.20751953 236.00268555 C99.57173678 224.91805226 102.06768397 213.86152466 104.61181641 202.81689453 C104.89718262 201.57278809 105.18254883 200.32868164 105.4765625 199.046875 C105.85917236 197.3913562 105.85917236 197.3913562 106.24951172 195.70239258 C106.86522861 193.20847283 106.86522861 193.20847283 106.796875 191.08984375 C101.30804254 199.81026693 97.42123029 208.47352027 93.796875 218.08984375 C93.42820312 218.98445312 93.05953125 219.8790625 92.6796875 220.80078125 C91.65840936 223.27769364 91.65840936 223.27769364 90.984375 226.77734375 C88.85463557 235.47651019 84.31668414 242.97286035 77.796875 249.08984375 C76.86875 249.60546875 75.940625 250.12109375 74.984375 250.65234375 C71.72784605 252.79234849 71.56092616 255.40850634 70.796875 259.08984375 C67.12276715 260.26555826 63.62758317 260.16351121 59.796875 260.08984375 C53.78105507 278.13730353 62.2032121 302.27382694 67.09765625 319.8203125 C67.84810961 323.32941564 67.91962441 326.51192586 67.796875 330.08984375 C63.506875 330.41984375 59.216875 330.74984375 54.796875 331.08984375 C54.73628906 332.46914063 54.67570313 333.8484375 54.61328125 335.26953125 C54.16987966 345.24651309 53.71314703 355.22062639 53.10180664 365.18896484 C52.90795326 368.46926048 52.81176695 371.68135186 52.89453125 374.96875 C52.796875 378.08984375 52.796875 378.08984375 50.796875 380.08984375 C44.61902789 379.75287027 44.61902789 379.75287027 41.859375 377.52734375 C41.50875 377.05296875 41.158125 376.57859375 40.796875 376.08984375 C38.30325929 377.29365823 36.11544417 378.54413097 33.796875 380.08984375 C31.234375 380.33984375 31.234375 380.33984375 28.796875 380.08984375 C26.796875 378.08984375 26.796875 378.08984375 26.609375 374.27734375 C26.67843968 371.10612386 27.1572196 368.19674142 27.796875 365.08984375 C27.466875 364.42984375 27.136875 363.76984375 26.796875 363.08984375 C26.1471524 359.42194962 25.71297353 355.72102525 25.234375 352.02734375 C25.02651367 350.50850586 25.02651367 350.50850586 24.81445312 348.95898438 C24.02723256 342.94430901 23.6517172 337.15491546 23.796875 331.08984375 C21.640625 330.90234375 21.640625 330.90234375 19.484375 330.71484375 C15.99113702 330.41108393 14.83212986 330.11334699 11.796875 328.08984375 C11.40263685 324.01604953 12.02614294 320.56864428 13.109375 316.65234375 C14.69522611 310.64555866 15.91846174 304.60442966 17.10546875 298.5078125 C17.64127567 295.85904947 18.22959376 293.26250044 18.921875 290.65234375 C20.61049399 283.77725216 20.93867051 277.12884521 20.859375 270.08984375 C20.85486328 269.31511719 20.85035156 268.54039062 20.84570312 267.7421875 C20.83407258 265.85803851 20.81614406 263.9739301 20.796875 262.08984375 C19.89195312 261.81720703 19.89195312 261.81720703 18.96875 261.5390625 C10.19975846 258.78107323 10.19975846 258.78107323 7.796875 256.08984375 C7.57 255.07921875 7.343125 254.06859375 7.109375 253.02734375 C6.22627366 249.20852713 4.26983201 247.2912133 1.546875 244.52734375 C-5.33350903 237.2591764 -9.21623325 227.93491489 -10.68359375 218.0546875 C-11.14090057 215.92725388 -11.14090057 215.92725388 -12.69140625 213.734375 C-14.44033393 210.67488136 -14.7987874 208.32725554 -15.203125 204.83984375 C-16.12954045 198.03069017 -17.35794871 191.85760818 -21.203125 186.08984375 C-21.26167676 189.61060607 -21.2969056 193.13124135 -21.328125 196.65234375 C-21.35326172 198.13831055 -21.35326172 198.13831055 -21.37890625 199.65429688 C-21.38535156 200.62431641 -21.39179688 201.59433594 -21.3984375 202.59375 C-21.40891113 203.47877197 -21.41938477 204.36379395 -21.43017578 205.27563477 C-21.2926825 208.19621049 -21.2926825 208.19621049 -20.24414062 211.30444336 C-18.9689413 215.94139588 -18.64412847 220.36770992 -18.3515625 225.15234375 C-18.28780426 226.10246338 -18.22404602 227.05258301 -18.15835571 228.03149414 C-18.02552128 230.03150555 -17.89630303 232.03176007 -17.77050781 234.03222656 C-17.57870434 237.08063615 -17.37629233 240.12819401 -17.171875 243.17578125 C-17.04365195 245.1262615 -16.9160277 247.07678122 -16.7890625 249.02734375 C-16.70004166 250.38388062 -16.70004166 250.38388062 -16.60922241 251.76782227 C-16.31014586 256.55349657 -16.141965 261.29489941 -16.203125 266.08984375 C-17.523125 266.08984375 -18.843125 266.08984375 -20.203125 266.08984375 C-20.57824219 264.91808594 -20.95335937 263.74632812 -21.33984375 262.5390625 C-23.858688 254.76793086 -26.42005803 247.18386137 -29.9453125 239.80078125 C-31.36071788 236.75018704 -32.59733787 233.65705959 -33.828125 230.52734375 C-37.96870496 220.01738946 -42.44617392 209.64726766 -46.86328125 199.25146484 C-48.44297146 195.52387954 -50.00813644 191.79034797 -51.5715332 188.0559082 C-54.29913156 181.54288229 -57.0790878 175.07017674 -60.04296875 168.66015625 C-61.85143883 164.65351209 -63.51683283 160.58908008 -65.1875 156.5234375 C-65.81274684 155.02524988 -66.47710851 153.54187674 -67.203125 152.08984375 C-68.26055908 152.09769897 -68.26055908 152.09769897 -69.33935547 152.10571289 C-72.58560263 152.12671646 -75.8318354 152.13957744 -79.078125 152.15234375 C-80.74101562 152.16491211 -80.74101562 152.16491211 -82.4375 152.17773438 C-87.59547444 152.19290489 -92.74916653 152.15371367 -97.8984375 151.8359375 C-99.07817139 151.76717407 -99.07817139 151.76717407 -100.28173828 151.69702148 C-102.203125 151.08984375 -102.203125 151.08984375 -103.45776367 149.26611328 C-104.5759742 146.00121691 -104.42757743 142.96391979 -104.390625 139.52734375 C-104.3896582 138.51897461 -104.3896582 138.51897461 -104.38867188 137.49023438 C-104.3612829 134.42571204 -104.1788863 132.01712765 -103.203125 129.08984375 C-103.02155732 126.44126123 -102.8792438 123.80373814 -102.765625 121.15234375 C-102.40245172 114.00439899 -101.5192442 107.12864423 -100.203125 100.08984375 C-99.98849609 98.63191406 -99.98849609 98.63191406 -99.76953125 97.14453125 C-96.83208564 77.23228936 -89.3721103 62.40362941 -74.203125 49.08984375 C-73.543125 49.08984375 -72.883125 49.08984375 -72.203125 49.08984375 C-72.203125 48.42984375 -72.203125 47.76984375 -72.203125 47.08984375 C-71.543125 47.08984375 -70.883125 47.08984375 -70.203125 47.08984375 C-69.97625 46.51234375 -69.749375 45.93484375 -69.515625 45.33984375 C-67.73397541 42.2855873 -66.25529162 40.93386109 -63.203125 39.08984375 C-61.58373257 38.90594664 -59.95634502 38.78660421 -58.328125 38.71484375 C-53.60612588 38.38507561 -51.08300487 37.32105397 -47.71484375 34 C-44.84377465 30.37221502 -43.08002707 26.29320528 -41.203125 22.08984375 C-33.90295386 6.07884039 -33.90295386 6.07884039 -27.203125 2.08984375 C-26.20345703 1.47882812 -26.20345703 1.47882812 -25.18359375 0.85546875 C-17.5058436 -3.18399619 -7.97505192 -3.57559146 0 0 Z M130.796875 29.08984375 C131.126875 32.38984375 131.456875 35.68984375 131.796875 39.08984375 C132.126875 39.08984375 132.456875 39.08984375 132.796875 39.08984375 C132.796875 36.11984375 132.796875 33.14984375 132.796875 30.08984375 C132.136875 29.75984375 131.476875 29.42984375 130.796875 29.08984375 Z M38.796875 335.08984375 C38.74750221 339.75291389 38.71116873 344.41583248 38.68701172 349.07910156 C38.67694312 350.66604258 38.66328733 352.252965 38.64599609 353.83984375 C38.62178499 356.11853622 38.61040078 358.39698381 38.6015625 360.67578125 C38.59123993 361.3872934 38.58091736 362.09880554 38.57028198 362.83187866 C38.56988078 364.5861604 38.67485291 366.33981084 38.796875 368.08984375 C39.456875 368.74984375 40.116875 369.40984375 40.796875 370.08984375 C40.796875 358.53984375 40.796875 346.98984375 40.796875 335.08984375 C40.136875 335.08984375 39.476875 335.08984375 38.796875 335.08984375 Z " fill="#F5F4F3" transform="translate(215.203125,6.91015625)"/>
<path d="M0 0 C0.33 0 0.66 0 1 0 C1.33 5.94 1.66 11.88 2 18 C0.68 18 -0.64 18 -2 18 C-2.69640673 15.87790224 -3.38188357 13.75221473 -4.0625 11.625 C-4.44535156 10.44164062 -4.82820312 9.25828125 -5.22265625 8.0390625 C-6 5 -6 5 -5 3 C-3.68 5.64 -2.36 8.28 -1 11 C-0.67 7.37 -0.34 3.74 0 0 Z " fill="#A09D9C" transform="translate(197,255)"/>
<path d="M0 0 C0.66 0 1.32 0 2 0 C2.33 1.65 2.66 3.3 3 5 C3.66 5 4.32 5 5 5 C4.67 8.3 4.34 11.6 4 15 C4.66 15 5.32 15 6 15 C6 18.3 6 21.6 6 25 C5.34 25 4.68 25 4 25 C3.87882812 23.74703125 3.75765625 22.4940625 3.6328125 21.203125 C3.46395167 19.55204135 3.29465817 17.90100191 3.125 16.25 C3.04636719 15.425 2.96773438 14.6 2.88671875 13.75 C2.80292969 12.95078125 2.71914063 12.1515625 2.6328125 11.328125 C2.52283936 10.22839355 2.52283936 10.22839355 2.41064453 9.10644531 C1.96089947 6.79942962 1.04775862 5.0912559 0 3 C0 2.01 0 1.02 0 0 Z " fill="#A09D9D" transform="translate(326,123)"/>
<path d="M0 0 C0.97791242 2.64036353 1.03638105 3.87266632 0.25 6.625 C-1 9 -1 9 -4 11 C-4.72965366 13.56282742 -4.72965366 13.56282742 -5 16 C-6.32 16.33 -7.64 16.66 -9 17 C-9 17.66 -9 18.32 -9 19 C-9.66 18.67 -10.32 18.34 -11 18 C-10.70230713 17.52578613 -10.40461426 17.05157227 -10.09790039 16.56298828 C-8.75182845 14.41757934 -7.40714859 12.2713013 -6.0625 10.125 C-5.59392578 9.37863281 -5.12535156 8.63226563 -4.64257812 7.86328125 C-4.19462891 7.14785156 -3.74667969 6.43242187 -3.28515625 5.6953125 C-2.66459351 4.7055542 -2.66459351 4.7055542 -2.03149414 3.69580078 C-0.95427126 1.97748532 -0.95427126 1.97748532 0 0 Z " fill="#A4A2A1" transform="translate(319,175)"/>
<path d="M0 0 C0.33 0.66 0.66 1.32 1 2 C1.66 2.33 2.32 2.66 3 3 C3.73075648 5.3140622 4.40138258 7.64828869 5 10 C5.66 10 6.32 10 7 10 C8.35439668 12.70879335 8.06501451 15.00933268 8 18 C5.5708627 14.98672998 3.90815875 11.9594495 2.3125 8.4375 C1.87550781 7.48746094 1.43851563 6.53742188 0.98828125 5.55859375 C0 3 0 3 0 0 Z " fill="#9B9998" transform="translate(197,425)"/>
<path d="M0 0 C2.46140365 2.46140365 3.30326986 4.78456293 4.625 8 C5.07101563 9.0725 5.51703125 10.145 5.9765625 11.25 C7 14 7 14 7 16 C5.68 16.33 4.36 16.66 3 17 C2.95101562 16.39671875 2.90203125 15.7934375 2.8515625 15.171875 C2.77679688 14.37265625 2.70203125 13.5734375 2.625 12.75 C2.55539063 11.96109375 2.48578125 11.1721875 2.4140625 10.359375 C2.11458412 7.97917099 2.11458412 7.97917099 0.9609375 5.953125 C0 4 0 4 0 0 Z " fill="#B1B1AC" transform="translate(209,326)"/>
<path d="M0 0 C0.99 0.495 0.99 0.495 2 1 C2.625 3.5625 2.625 3.5625 3 6 C3.33 6 3.66 6 4 6 C4.33 8.64 4.66 11.28 5 14 C1.125 12.125 1.125 12.125 0 11 C-0.07226502 9.14712498 -0.0838122 7.29166122 -0.0625 5.4375 C-0.05347656 4.42558594 -0.04445313 3.41367187 -0.03515625 2.37109375 C-0.02355469 1.58863281 -0.01195312 0.80617187 0 0 Z " fill="#918C8A" transform="translate(345,35)"/>
<path d="M0 0 C0.66 0 1.32 0 2 0 C0.45730076 4.72065967 -1.07794619 9.41664092 -3 14 C-4.37432457 10.18243176 -3.67975039 6.92744671 -3 3 C-2.01 2.67 -1.02 2.34 0 2 C0 1.34 0 0.68 0 0 Z " fill="#A39F9F" transform="translate(308,430)"/>
<path d="M0 0 C7.09629025 -0.31461385 12.68284595 -0.44572039 19 3 C19 3.33 19 3.66 19 4 C16.36 3.67 13.72 3.34 11 3 C11 2.34 11 1.68 11 1 C7.37 1 3.74 1 0 1 C0 0.67 0 0.34 0 0 Z " fill="#948F8E" transform="translate(313,14)"/>
<path d="M0 0 C0.66 0 1.32 0 2 0 C2 0.99 2 1.98 2 3 C3.32 3.66 4.64 4.32 6 5 C6 7.64 6 10.28 6 13 C4.1727089 10.25906335 3.06301822 7.86174676 1.875 4.8125 C1.52179688 3.91144531 1.16859375 3.01039063 0.8046875 2.08203125 C0.53914062 1.39496094 0.27359375 0.70789063 0 0 Z " fill="#C5C3C2" transform="translate(135,285)"/>
<path d="M0 0 C0.33 0 0.66 0 1 0 C1 4.62 1 9.24 1 14 C0.01 13.67 -0.98 13.34 -2 13 C-2.23509196 8.18061476 -1.45184478 4.53701494 0 0 Z " fill="#8B8485" transform="translate(229,322)"/>
<path d="M0 0 C0.66 0 1.32 0 2 0 C1.55090939 1.48199902 1.09043436 2.96055236 0.625 4.4375 C0.36976563 5.26121094 0.11453125 6.08492187 -0.1484375 6.93359375 C-1 9 -1 9 -3 10 C-3.2295711 6.63295715 -3.33943529 4.58629732 -1.625 1.625 C-1.08875 1.08875 -0.5525 0.5525 0 0 Z " fill="#A9A7A5" transform="translate(399,224)"/>
<path d="M0 0 C3 1 3 1 3.984375 2.7421875 C4.23703125 3.44601562 4.4896875 4.14984375 4.75 4.875 C5.01296875 5.57367188 5.2759375 6.27234375 5.546875 6.9921875 C6 9 6 9 5 12 C4.3490741 10.75264433 3.70448331 9.50198168 3.0625 8.25 C2.70285156 7.55390625 2.34320313 6.8578125 1.97265625 6.140625 C1.04441818 4.09775567 0.46833422 2.18884624 0 0 Z " fill="#9F9E9C" transform="translate(156,333)"/>
<path d="M0 0 C0.66 0.33 1.32 0.66 2 1 C0.68 4.3 -0.64 7.6 -2 11 C-3.1577506 7.52674819 -3.06866652 4.63932552 -3 1 C-2.01 0.67 -1.02 0.34 0 0 Z " fill="#B3B1B0" transform="translate(387,251)"/>
<path d="M0 0 C1 2 1 2 0.22265625 4.3828125 C-0.16019531 5.28773438 -0.54304688 6.19265625 -0.9375 7.125 C-1.31777344 8.03507813 -1.69804687 8.94515625 -2.08984375 9.8828125 C-2.39019531 10.58148438 -2.69054687 11.28015625 -3 12 C-3.33 12 -3.66 12 -4 12 C-4 10.02 -4 8.04 -4 6 C-3.34 6 -2.68 6 -2 6 C-2.33 4.68 -2.66 3.36 -3 2 C-2.01 1.34 -1.02 0.68 0 0 Z " fill="#989594" transform="translate(411,198)"/>
<path d="M0 0 C3.96 0.33 7.92 0.66 12 1 C11.67 1.66 11.34 2.32 11 3 C7.32744306 4.08507364 5.62335675 4.29812714 2.125 2.625 C1.42375 2.08875 0.7225 1.5525 0 1 C0 0.67 0 0.34 0 0 Z " fill="#959290" transform="translate(318,76)"/>
<path d="M0 0 C2.16551116 3.24826674 2.55156953 4.23094157 2 8 C0.68 9.32 -0.64 10.64 -2 12 C-1.34 8.04 -0.68 4.08 0 0 Z " fill="#ADA7A9" transform="translate(329,148)"/>
<path d="M0 0 C2.77842595 2.77842595 3.94471208 4.78366581 4.125 8.75 C4.08375 9.4925 4.0425 10.235 4 11 C3.67 9.68 3.34 8.36 3 7 C1.68 7.33 0.36 7.66 -1 8 C-0.67 5.36 -0.34 2.72 0 0 Z " fill="#938F8E" transform="translate(233,30)"/>
<path d="M0 0 C4.42857143 5.14285714 4.42857143 5.14285714 5 9 C3.0625 8.4375 3.0625 8.4375 1 7 C0.25 3.375 0.25 3.375 0 0 Z " fill="#9A9996" transform="translate(216,230)"/>
<path d="M0 0 C0.33 0.99 0.66 1.98 1 3 C1.66 3.33 2.32 3.66 3 4 C2.360625 4.61875 1.72125 5.2375 1.0625 5.875 C-1.03883584 7.82597612 -1.03883584 7.82597612 -2 10 C-2.66 9.67 -3.32 9.34 -4 9 C-2.68 6.03 -1.36 3.06 0 0 Z " fill="#A4A1A0" transform="translate(324,165)"/>
<path d="M0 0 C0.99 0.99 1.98 1.98 3 3 C3.66 2.34 4.32 1.68 5 1 C4.67 2.65 4.34 4.3 4 6 C3.01 6.33 2.02 6.66 1 7 C0.67 4.69 0.34 2.38 0 0 Z " fill="#B8A7A5" transform="translate(252,424)"/>
<path d="M0 0 C0.33 1.32 0.66 2.64 1 4 C1.66 4.33 2.32 4.66 3 5 C1.71034824 6.37562854 0.37310707 7.70766393 -1 9 C-1.66 9 -2.32 9 -3 9 C-2.01 6.03 -1.02 3.06 0 0 Z " fill="#BFB5B5" transform="translate(266,402)"/>
<path d="M0 0 C0.66 0 1.32 0 2 0 C2 1.32 2 2.64 2 4 C0.68 4.33 -0.64 4.66 -2 5 C-2 5.66 -2 6.32 -2 7 C-2.66 6.67 -3.32 6.34 -4 6 C-2.7260411 3.96166576 -1.38938077 1.96147874 0 0 Z " fill="#AFAEA5" transform="translate(312,187)"/>
</svg>
