<svg xmlns="http://www.w3.org/2000/svg" width="500" height="500" xmlns:v="https://vecta.io/nano"><path d="M86 169h56l7.448 18.097c2.673 6.474 5.426 12.893 8.357 19.255 2.143 4.749 4.093 9.578 6.07 14.398 2.824 6.839 5.682 13.637 8.875 20.313 2.564 5.374 4.828 10.793 6.99 16.334 1.924 4.883 4.108 9.61 6.373 14.345 2.835 6.001 5.359 12.122 7.887 18.258 3.766 9.129 7.726 18.099 12 27 3.962 8.276 7.676 16.546 10.887 25.152 1.182 3.023 2.581 5.833 4.086 8.703 1.323 2.762 2.384 5.592 3.465 8.457a215.06 215.06 0 0 0 6.074 14.473L236.063 386l1.132 2.512 6.985 15.68 1.636 3.701 3.198 7.258 1.482 3.354 1.318 2.994c1.187 2.661 1.187 2.661 3.186 5.502l.959-2.161 4.479-10.089.826-1.861 10.424-23.264 10.132-23.21c2.225-5.241 4.538-10.434 6.904-15.613 7.044-15.457 13.705-31.069 20.129-46.792 2.542-6.207 5.187-12.34 7.991-18.433 1.819-4.054 3.421-8.187 5.032-12.328 2.825-7.166 5.884-14.121 9.207-21.07 2.992-6.393 5.6-12.956 8.29-19.48 2.593-6.269 5.303-12.438 8.202-18.571 2.075-4.553 3.935-9.188 5.817-13.823 2.194-5.374 4.556-10.648 7.054-15.888 2.312-5.083 4.407-10.263 6.555-15.418h56c1.118 4.47.927 4.798-1.187 8.563-1.88 3.532-3.445 6.967-4.75 10.75-1.846 5.279-4.126 10.274-6.504 15.332-3.029 6.52-5.781 13.163-8.587 19.781l-11.722 26.637c-2.443 5.165-4.712 10.365-6.875 15.652-2.038 4.87-4.204 9.681-6.359 14.5l-6.141 14.098c-1.861 4.373-3.794 8.697-5.812 13-2.367 5.068-4.526 10.193-6.625 15.375-2.225 5.492-4.606 10.81-7.328 16.078-2.546 5.128-4.458 10.546-6.516 15.883-2.444 6.272-4.984 12.269-8.395 18.09-1.393 2.627-2.414 5.287-3.449 8.074-4.326 11.631-9.687 22.856-15 34.063-4.227 8.99-8.119 18.129-12.044 27.253l-8.567 19.382c-2.486 5.435-4.908 10.888-7.174 16.419l-1.014 2.469-2.039 5.023-1.01 2.445-.891 2.191c-1.14 2.188-2.079 3.4-4.011 4.942-2.353.388-2.353.388-5.158.404l-3.185.038-3.438-.009-3.53.016c-2.465.006-4.929.005-7.394-.003-3.78-.009-7.558.02-11.337.052-2.392.002-4.784.001-7.176-.002l-3.438.034-3.185-.028-2.806-.001C228 495 228 495 226.235 493.097c-1.242-2.108-2.144-4.113-2.985-6.409-1.655-4.301-3.519-8.467-5.5-12.625-2.747-5.79-5.291-11.644-7.75-17.562-2.286-5.496-4.629-10.936-7.187-16.312-3.565-7.531-6.882-15.166-10.187-22.812l-.857-1.981-9.53-22.218c-3.293-7.728-6.694-15.372-10.289-22.964-3.116-6.659-6.015-13.417-8.963-20.151l-8.615-19.083c-4.352-9.447-8.398-19.027-12.43-28.614-3.968-9.434-7.986-18.808-12.39-28.047-1.642-3.511-3.167-7.058-4.676-10.629-2.066-4.885-4.31-9.613-6.727-14.332-1.558-3.195-2.832-6.477-4.117-9.789-1.435-3.572-3.055-7.05-4.687-10.535-1.119-2.524-2.155-5.054-3.168-7.621-2.34-5.895-4.911-11.679-7.488-17.473l-9.875-22.687-.882-2.035C86.345 175.409 86 173.278 86 169z" fill="#f9f8f8"/><path d="M215.203 6.91c7.33 4.446 14.053 13.242 16.492 21.422L232 30h2c2.135 3.825 3.581 6.584 3 11-1 2.313-1 2.313-2 4h-2v2h-7l-.687 2.125c-1.651 3.616-3.603 5.963-6.312 8.875h-2l-.367 2.117-.508 2.758-.492 2.742C215 68 215 68 213 70l-2.562-.312c-4.003.364-4.841 1.252-7.812 3.813-3.143 2.652-5.023 3.989-9.187 3.938L190 77v-2h-2l-.687-2.437L186 70c-2.548-.894-2.548-.894-5-1 .517 5.789 1.772 10.627 4 16l2.257 5.568 1.585 3.889c2.692 6.627 4.433 12.417 4.345 19.605l-.02 3.535c-.159 3.219-.632 6.229-1.168 9.402a143.02 143.02 0 0 0-.312 7.063l-.113 3.598c.289 6.025 2.524 11.668 4.426 17.34l1.06 3.254C202.183 173.87 207.202 188.664 217 202c3.261 5.847 3.967 11.422 3 18-1.298 2.023-2.625 4.029-4 6 1.049 4.468 3.03 7.897 5.563 11.688 1.883 2.831 3.361 5.082 4.438 8.313 6.023 3.152 13.367 3.946 20 5l-1.242-2.047-1.633-2.703-1.617-2.672c-2.868-4.905-4.082-7.739-3.508-13.578 1.822-5.743 4.277-10.125 9-14 5.416-1.805 10.926-1.614 16.375 0 3.691 2.812 5.38 5.533 6.625 10 .534 5.805.279 11.312-1 17h-2l-.312 1.75c-.786 2.573-2.039 4.147-3.687 6.25l6.438-.937 3.621-.527c2.821-.225 2.821-.225 3.941-1.535l2.625.313c4.953-.459 7.186-2.609 10.375-6.312 5.286-6.981 5.286-6.981 6.758-15.23-.662-2.753-.662-2.753-1.883-5.082-1.348-4.14-1.101-7.522.125-11.687 1.975-3.619 4.444-6.773 7-10 8.916-11.362 16.729-22.527 22.438-35.875l1.038-2.415c4.613-11.203 5.37-25.332.689-36.75l-.852-1.711c-1.874-4.641-1.241-8.737.461-13.343.97-2.179 1.994-4.325 3.039-6.469C335.782 88.77 335.782 88.77 336 73c-3.179.736-3.179.736-4.812 3.5C329 79 329 79 326.313 80.188c-4.439-.251-6.62-2.247-10.133-4.832-2.816-1.751-4.931-1.51-8.18-1.355-2.537-2.255-3.282-4.803-4.312-7.937-1.584-4.526-3.935-6.17-7.687-9.062-1.75-2.625-1.75-2.625-3-5l-2-3c-1.146-10.047.77-18.04 7-26 6.153-6.42 12.124-9.091 21-9.437 8.082.243 12.514 3.159 18.563 8.25 3.476 2.912 3.476 2.912 8 2.938L349 24c5.842 1.245 10.905 3.973 14.344 8.941 2.72 4.546 4.11 8.615 5.07 13.789 1.454 5.63 4.863 11.823 9.586 15.27 2.561 1.083 5.13 2.064 7.758 2.973C388 66 388 66 390 69c-2.139 2.139-3.133 2.427-6 3l.734 2.063c8.399 24.292 11.158 49.97 11.516 75.625l.078 3.449C396 156 396 156 394.976 157.647c-3.073 2.104-6.324 1.834-9.926 1.865l-2.341.054-7.397.121-5.018.104L358 160l-9.062 24.75c-3.132 8.971-6.573 17.747-10.91 26.211-3.745 7.433-6.841 15.07-9.777 22.852-1.157 2.951-2.414 5.815-3.75 8.688-1.825 3.929-3.459 7.888-5 11.938l-5.125 13.313-1.164 2.984C312 273 312 273 309 274l-1-1c.104-8.963 1.73-17.648 3.625-26.375l.786-3.712 7.404-33.186.865-3.77.773-3.344c.616-2.494.616-2.494.547-4.613-5.489 8.72-9.376 17.384-13 27l-1.117 2.711c-1.021 2.477-1.021 2.477-1.695 5.977-2.13 8.699-6.668 16.196-13.187 22.313l-2.812 1.563c-3.257 2.14-3.423 4.756-4.187 8.438-3.674 1.176-7.169 1.074-11 1-6.016 18.047 2.406 42.184 7.301 59.73.75 3.509.822 6.692.699 10.27l-13 1-.184 4.18-1.511 29.919c-.194 3.28-.29 6.492-.207 9.78C268 385 268 385 266 387c-6.178-.337-6.178-.337-8.937-2.562L256 383a56.54 56.54 0 0 0-7 4c-2.562.25-2.562.25-5 0-2-2-2-2-2.187-5.812.069-3.171.548-6.081 1.188-9.187l-1-2c-.65-3.668-1.084-7.369-1.562-11.062l-.42-3.068c-.787-6.015-1.163-11.804-1.018-17.869l-4.312-.375c-3.493-.304-4.652-.601-7.687-2.625-.394-4.074.229-7.521 1.313-11.437 1.586-6.007 2.809-12.048 3.996-18.145.536-2.649 1.124-5.245 1.816-7.855 1.689-6.875 2.017-13.523 1.938-20.562l-.014-2.348L236 269l-1.828-.551c-8.769-2.758-8.769-2.758-11.172-5.449l-.687-3.062c-.883-3.819-2.84-5.736-5.562-8.5-6.88-7.268-10.763-16.592-12.23-26.473-.457-2.127-.457-2.127-2.008-4.32-1.749-3.059-2.107-5.407-2.512-8.895-.926-6.809-2.155-12.982-6-18.75l-.125 10.563-.051 3.002-.02 2.939-.032 2.682c.137 2.921.137 2.921 1.186 6.029 1.275 4.637 1.6 9.063 1.893 13.848l.193 2.879.388 6.001.599 9.144.383 5.852.18 2.74c.299 4.786.467 9.527.406 14.322h-4l-1.137-3.551c-2.519-7.771-5.08-15.355-8.605-22.738-1.415-3.051-2.652-6.144-3.883-9.273-4.141-10.51-8.618-20.88-13.035-31.276l-4.708-11.196c-2.728-6.513-5.508-12.986-8.471-19.396-1.808-4.007-3.474-8.071-5.145-12.137-.625-1.498-1.29-2.982-2.016-4.434l-2.136.016-9.739.047-3.359.025c-5.158.015-10.312-.024-15.461-.342l-2.383-.139C113 158 113 158 111.745 156.176c-1.118-3.265-.97-6.302-.933-9.739l.002-2.037c.027-3.065.21-5.473 1.186-8.4l.438-7.937c.363-7.148 1.246-14.024 2.563-21.062l.434-2.945C118.371 84.142 125.831 69.314 141 56h2v-2h2l.688-1.75c1.782-3.054 3.26-4.406 6.313-6.25 1.619-.184 3.247-.303 4.875-.375 4.722-.33 7.245-1.394 10.613-4.715 2.871-3.628 4.635-7.707 6.512-11.91 7.3-16.011 7.3-16.011 14-20l2.02-1.234c7.678-4.039 17.209-4.431 25.184-.855zM346 36l1 10h1v-9l-2-1zm-92 306l-.11 13.989-.041 4.761-.044 6.836-.031 2.156c0 1.754.105 3.508.227 5.258l2 2v-35h-2z" fill="#f5f4f3"/><path d="M197 255h1l1 18h-4l-2.062-6.375-1.16-3.586C191 260 191 260 192 258l4 8 1-11z" fill="#a09d9c"/><path d="M326 123h2l1 5h2l-1 10h2v10h-2l-.367-3.797-.508-4.953-.238-2.5-.254-2.422-.222-2.222c-.45-2.307-1.363-4.015-2.411-6.106v-3z" fill="#a09d9d"/><path d="M319 175c.978 2.64 1.036 3.873.25 6.625C318 184 318 184 315 186c-.73 2.563-.73 2.563-1 5l-4 1v2l-2-1 .902-1.437 4.035-6.438 1.42-2.262 1.357-2.168 1.254-2c1.077-1.718 1.077-1.718 2.031-3.696z" fill="#a4a2a1"/><path d="M197 425l1 2 2 1 2 7h2c1.354 2.709 1.065 5.009 1 8-2.429-3.013-4.092-6.041-5.687-9.562l-1.324-2.879C197 428 197 428 197 425z" fill="#9b9998"/><path d="M209 326c2.461 2.461 3.303 4.785 4.625 8l1.352 3.25C216 340 216 340 216 342l-4 1-.148-1.828-.227-2.422-.211-2.391c-.299-2.38-.299-2.38-1.453-4.406C209 330 209 330 209 326z" fill="#b1b1ac"/><path d="M345 35l2 1 1 5h1l1 8c-3.875-1.875-3.875-1.875-5-3l-.062-5.562.027-3.066L345 35z" fill="#918c8a"/><path d="M308 430h2c-1.543 4.721-3.078 9.417-5 14-1.374-3.818-.68-7.073 0-11l3-1v-2z" fill="#a39f9f"/><path d="M313 14c7.096-.315 12.683-.446 19 3v1l-8-1v-2h-11v-1z" fill="#948f8e"/><path d="M135 285h2v3l4 2v8c-1.827-2.741-2.937-5.138-4.125-8.187l-1.07-2.73L135 285z" fill="#c5c3c2"/><path d="M229 322h1v14l-3-1c-.235-4.819.548-8.463 2-13z" fill="#8b8485"/><path d="M399 224h2l-1.375 4.438-.773 2.496C398 233 398 233 396 234c-.23-3.367-.339-5.414 1.375-8.375L399 224z" fill="#a9a7a5"/><path d="M156 333c3 1 3 1 3.984 2.742l.766 2.133.797 2.117C162 342 162 342 161 345l-1.937-3.75-1.09-2.109c-.928-2.043-1.504-3.952-1.973-6.141z" fill="#9f9e9c"/><path d="M387 251l2 1-4 10c-1.158-3.473-1.069-6.361-1-10l3-1z" fill="#b3b1b0"/><path d="M411 198c1 2 1 2 .223 4.383l-1.16 2.742-1.152 2.758L408 210h-1v-6h2l-1-4 3-2z" fill="#989594"/><path d="M318 76l12 1-1 2c-3.673 1.085-5.377 1.298-8.875-.375L318 77v-1z" fill="#959290"/><path d="M329 148c2.166 3.248 2.552 4.231 2 8l-4 4 2-12z" fill="#ada7a9"/><path d="M233 30c2.778 2.778 3.945 4.784 4.125 8.75L237 41l-1-4-4 1 1-8z" fill="#938f8e"/><path d="M216 230c4.429 5.143 4.429 5.143 5 9-1.937-.562-1.937-.562-4-2-.75-3.625-.75-3.625-1-7z" fill="#9a9996"/><path d="M324 165l1 3 2 1-1.937 1.875c-2.101 1.951-2.101 1.951-3.062 4.125l-2-1 4-9z" fill="#a4a1a0"/><path d="M252 424l3 3 2-2-1 5-3 1-1-7z" fill="#b8a7a5"/><path d="M266 402l1 4 2 1-4 4h-2l3-9z" fill="#bfb5b5"/><path d="M312 187h2v4l-4 1v2l-2-1 4-6z" fill="#afaea5"/></svg>